# xmcd CD database file
#
# Track frame offsets:
#	150
#	18396
#	41946
#	57486
#	76236
#	109079
#	126286
#	147857
#	152376
#	167995
#
# Disc length: 3474 seconds
#
# Revision: 1
# Processed by: cddbd v1.5.2PL0 Copyright (c) Steve Scherf et al.
# Submitted via: CDex 2.06
#
DISCID=830d900a
DTITLE=Henrik Fevre - Other Rooms
DYEAR=2007
DGENRE=New Age
TTITLE0=Heaven
TTITLE1=Long Way From Home
TTITLE2=Waiting
TTITLE3=Freelove
TTITLE4=Remember
TTITLE5=Tonguetied
TTITLE6=Anything Is Fine
TTITLE7=Sea of Faces
TTITLE8=Sunshine Parade
TTITLE9=Free
EXTD=YEAR: 2007
EXTT0=
EXTT1=
EXTT2=
EXTT3=
EXTT4=
EXTT5=
EXTT6=
EXTT7=
EXTT8=
EXTT9=
PLAYORDER=
